PathFileType	4	(X/Y/Z)	Kaydara	
DataRate	CameraRate	NumFrames	NumMarkers	Units	OrigDataRate	OrigDataStartFrame	OrigNumFrames	
240.00	240.00	4	72	mm	240.00	178	355	
Frame#	Time	Hips			RightUpLeg			RightLeg			RightFoot			RightFoot_End			LeftUpLeg			LeftLeg			LeftFoot			LeftFoot_End			Spine			Spine1			Spine2			Spine3			Neck			Head			Head_End			RightShoulder			RightArm			RightForeArm			RightHand			RightHandThumb1			RightHandThumb2			RightHandThumb3			RightHandThumb3_End			RightInHandIndex			RightHandIndex1			RightHandIndex2			RightHandIndex3			RightHandIndex3_End			RightInHandMiddle			RightHandMiddle1			RightHandMiddle2			RightHandMiddle3			RightHandMiddle3_End			RightInHandRing			RightHandRing1			RightHandRing2			RightHandRing3			RightHandRing3_End			RightInHandPinky			RightHandPinky1			RightHandPinky2			RightHandPinky3			RightHandPinky3_End			LeftShoulder			LeftArm			LeftForeArm			LeftHand			LeftHandThumb1			LeftHandThumb2			LeftHandThumb3			LeftHandThumb3_End			LeftInHandIndex			LeftHandIndex1			LeftHandIndex2			LeftHandIndex3			LeftHandIndex3_End			LeftInHandMiddle			LeftHandMiddle1			LeftHandMiddle2			LeftHandMiddle3			LeftHandMiddle3_End			LeftInHandRing			LeftHandRing1			LeftHandRing2			LeftHandRing3			LeftHandRing3_End			LeftInHandPinky			LeftHandPinky1			LeftHandPinky2			LeftHandPinky3			LeftHandPinky3_End			
		X1	Y1	Z1	X2	Y2	Z2	X3	Y3	Z3	X4	Y4	Z4	X5	Y5	Z5	X6	Y6	Z6	X7	Y7	Z7	X8	Y8	Z8	X9	Y9	Z9	X10	Y10	Z10	X11	Y11	Z11	X12	Y12	Z12	X13	Y13	Z13	X14	Y14	Z14	X15	Y15	Z15	X16	Y16	Z16	X17	Y17	Z17	X18	Y18	Z18	X19	Y19	Z19	X20	Y20	Z20	X21	Y21	Z21	X22	Y22	Z22	X23	Y23	Z23	X24	Y24	Z24	X25	Y25	Z25	X26	Y26	Z26	X27	Y27	Z27	X28	Y28	Z28	X29	Y29	Z29	X30	Y30	Z30	X31	Y31	Z31	X32	Y32	Z32	X33	Y33	Z33	X34	Y34	Z34	X35	Y35	Z35	X36	Y36	Z36	X37	Y37	Z37	X38	Y38	Z38	X39	Y39	Z39	X40	Y40	Z40	X41	Y41	Z41	X42	Y42	Z42	X43	Y43	Z43	X44	Y44	Z44	X45	Y45	Z45	X46	Y46	Z46	X47	Y47	Z47	X48	Y48	Z48	X49	Y49	Z49	X50	Y50	Z50	X51	Y51	Z51	X52	Y52	Z52	X53	Y53	Z53	X54	Y54	Z54	X55	Y55	Z55	X56	Y56	Z56	X57	Y57	Z57	X58	Y58	Z58	X59	Y59	Z59	X60	Y60	Z60	X61	Y61	Z61	X62	Y62	Z62	X63	Y63	Z63	X64	Y64	Z64	X65	Y65	Z65	X66	Y66	Z66	X67	Y67	Z67	X68	Y68	Z68	X69	Y69	Z69	X70	Y70	Z70	X71	Y71	Z71	X72	Y72	Z72	

178	0.738	5921.0129	906.651	56.2195	5984.174504624792	886.0883703404493	2.0411401123968123	5904.069025316019	484.00297694511596	-80.45908846212214	5922.043681323479	107.31064451202838	-166.04208500483517	5848.407948867906	31.926641183685067	-6.548518058501115	5865.809890545002	898.7795015467326	122.62002601944354	5806.407652240102	496.5081803688705	222.46098373550888	5758.496038535905	65.33243363584734	298.68688927184877	5629.494407638379	-13.15092104668234	181.9700208747694	5883.38567350412	1033.7611891392064	2.978022290162059	5835.7361581511195	1103.201552534587	-44.58766679514011	5781.462777174161	1170.5890630188535	-95.6614160665471	5723.267599673838	1226.9847274019173	-147.32828261982743	5660.572416286666	1287.2855696793415	-201.8722850609929	5602.535356005428	1342.2149642951717	-250.65196744418208	5483.852806371279	1436.7660841486766	-298.30854582705456	5698.443862387067	1268.0623987919664	-201.1999231427176	5734.505889959662	1258.2389591443161	-278.92134106467427	5802.804311057951	1044.7868468066779	-286.33934600092124	5885.669989343857	1006.9674319378936	-420.56019153399234	5907.825287760024	1038.1050769977614	-421.52349192961316	5916.97455994776	1053.8591646523719	-439.36332888040045	5922.385505802292	1060.854826642471	-453.8793848135252	5926.074599647945	1063.2858818935501	-467.770775927825	5907.807528781284	1027.428839938613	-428.1516344665838	5932.043577906703	1040.8447250018478	-451.67655295724546	5941.468421753208	1046.3457272492062	-473.1802669550084	5942.145298271403	1049.857949989715	-485.83657244374405	5939.20976282581	1052.8272414974508	-495.8315573027368	5903.997586116445	1015.9669173100556	-433.267760593878	5925.578025097019	1022.8537036649715	-458.9791099527763	5935.271780557362	1027.2957086491247	-483.04910473297514	5935.804971733231	1030.7841517163338	-498.6088685441695	5932.455169280105	1033.6690113973991	-509.6863643655746	5900.761495994462	1007.542339401499	-436.2482265489554	5917.50951227994	1006.4468427229813	-461.7792222572524	5925.320122192287	1008.7123082761645	-483.3371149979114	5925.495331173352	1011.2242025940459	-498.65290057450517	5922.184979044329	1013.5324866976727	-509.2140917190364	5895.745853620757	997.3208083178794	-439.26776791789644	5908.271374747737	990.071244885054	-464.4405026510941	5913.456099529441	989.3841492887411	-482.4945349586271	5913.066436132665	990.0064244283525	-494.0486982622141	5909.836196345253	991.3548707393475	-503.62448138067884	5663.870994510024	1266.9310997735938	-165.12510311879763	5619.960418983653	1219.8821413289827	-97.21454018840195	5754.1698044238265	1068.690368907129	-220.57184497153798	5846.882622339373	1000.3792697852966	-359.195608621309	5854.579493848953	1025.1855150872382	-379.16150288793324	5853.618387653779	1021.8986118306307	-397.08680516388364	5849.883030339519	1016.5046311348904	-408.66570444010654	5844.146107864563	1009.3516737990066	-417.5449444204948	5844.221633211006	1018.548814548036	-378.0009142257133	5829.099213458303	1025.1942518953201	-402.30774896799534	5818.966003426206	1017.9719050070291	-417.8919072095914	5816.55154857068	1008.992600972978	-425.7004753632547	5817.173901855126	998.5323426119946	-430.8954432545904	5836.427406857014	1009.3093706859863	-374.6321299380593	5817.461440482503	1010.7968908084405	-396.5184864764552	5805.425200289563	1001.6603972348785	-412.9988929310168	5802.042520746584	990.2247163721722	-422.1677032893389	5802.495135498182	978.4864085563971	-427.72945522713314	5831.27966675554	1002.7134408827027	-371.6442517223925	5809.734719311473	998.6172424155312	-388.701499185173	5798.273549621771	989.3671500474798	-402.49464252932853	5794.495389906083	977.6532126439117	-411.0353184861406	5794.676781153552	966.2924326016552	-416.12100553232983	5825.99756269399	994.1206000735934	-367.3983636249851	5802.884725783935	985.408255752686	-380.4751877568318	5792.287364250758	976.0108553535188	-390.5545449317606	5788.844812679038	966.5039006910861	-396.31701767026203	5788.610263763114	955.8860167554872	-400.55326834806647
179	0.742	5921.0129	906.651	56.2195	5983.825849004456	885.8379026590055	1.6485292145902264	5903.376225206397	483.77353732599033	-80.59315370741915	5922.462466458527	107.19407066155983	-166.39734501882492	5848.846750325442	31.770115731973572	-6.913553172266198	5866.175100153858	899.0371336772201	123.01973671064421	5806.673302877327	496.7448743272646	222.71428375826252	5758.418369757903	65.4698440387659	298.2781303084912	5629.470619349726	-13.110132177177876	181.5602483298874	5883.319233510582	1033.7362835474498	2.960087735680708	5835.597362321963	1103.161214616411	-44.559328810980205	5781.237511333956	1170.5292527128668	-95.57094835968991	5722.937084945925	1226.8963503134771	-147.1556779876173	5660.133177799409	1287.1628673256155	-201.6173249315753	5602.002696657663	1342.0629282776665	-250.3217341939707	5483.2795462683625	1436.5801469407136	-297.93329632387344	5697.977026709712	1267.8140901779354	-201.11185920127323	5733.748195744826	1257.496122972551	-279.3236914620793	5800.083425582359	1044.1022286079024	-287.8400920652807	5880.27917715626	1008.037656049525	-423.93128414568497	5902.060071773874	1039.557187227359	-425.5170592260163	5910.476173050036	1055.4945629020647	-443.5296916239034	5915.363667359171	1062.608447604666	-458.1276374295872	5918.60537128688	1065.130002137868	-472.0544079976969	5901.9871360994985	1028.9061758395956	-432.1081607519779	5925.409270194906	1042.8055645165728	-456.19608541353375	5934.132491576931	1048.5150902866162	-477.8583713078327	5934.372590232956	1052.0568760544695	-490.47287264415104	5931.075142914624	1054.983132482658	-500.3385600221171	5898.164087616885	1017.3957244889883	-437.08904160726297	5918.943607892564	1024.7278929543886	-463.27644254868426	5927.872495670526	1029.3893072394858	-487.4995079400221	5927.879086385009	1032.9095147226885	-502.9992566489332	5924.133459899692	1035.745389065826	-513.930620319888	5894.9406349568035	1008.9258565436596	-439.9618186557102	5910.985135414295	1008.1940985947426	-465.83249094470875	5918.131091784791	1010.641774313197	-487.5026216282081	5917.799419268194	1013.1795134154688	-502.74927034612324	5914.117398180413	1015.4394668176586	-513.1677303106297	5889.954260575942	998.6276114217902	-442.82337350421096	5901.856083311028	991.6690047466204	-468.2179202617583	5906.51477052543	991.1121358720122	-486.3272892650177	5905.758381131645	991.7456771398996	-497.8143159916403	5902.2006270377915	993.0469449757451	-507.25404698498113	5663.539236409868	1266.9648214207575	-164.75485413263905	5619.897877122545	1220.3707951984106	-96.10121721848708	5752.30104813106	1068.2942361737782	-220.47437879115995	5842.096438050373	999.5858270197064	-360.1144735515428	5849.0971732454955	1024.6105575272998	-380.1427572573109	5847.746485745957	1021.4369763008563	-398.118305764791	5843.797431759929	1016.1007799702162	-409.66823691387515	5837.931641558912	1008.9779161802107	-418.4686115439526	5838.858498391912	1017.9253280519583	-378.7380254180325	5823.169580358278	1024.7210181517967	-402.6190304575269	5812.767418865153	1017.5648704526719	-418.01683056999525	5810.251552521525	1008.611221276527	-425.85505041969714	5810.834348836758	998.1617412989704	-431.1727123771505	5831.246627758199	1008.621352523485	-375.2153298517813	5811.826716589683	1010.2205303926462	-396.60306287659205	5799.523052289654	1001.1472232149893	-412.86132578407995	5796.0305270132985	989.738151011457	-422.0568937213345	5796.4459377257135	978.009525450404	-427.7485122161196	5826.241169985305	1001.9762781677894	-372.127960239083	5804.4099589524	997.9383092566998	-388.6472374002334	5792.743059290327	988.7338611982705	-402.2283583981365	5788.873473431136	977.0405824584818	-410.7850723512803	5789.026768403791	965.6865332489671	-415.9882362815413	5821.147408122248	993.3202268065329	-367.7924978875102	5797.884558470426	984.6233135426708	-380.3151046848686	5787.166393097662	975.2474968224733	-390.1983323490829	5783.678408898762	965.7483708009663	-395.9597569624585	5783.431203107721	955.1322826267669	-400.2927373599403
180	0.746	5921.0129	906.651	56.2195	5983.461711038245	885.5803643419727	1.245711527521964	5902.674649444696	483.53320217287455	-80.72347410450966	5922.893265477006	107.07260446221484	-166.75991791566287	5849.297307893861	31.60540713158079	-7.287689192557123	5866.555646699733	899.3014090117326	123.42880786423352	5806.954181735955	496.9878317120372	222.97559283630042	5758.342955945101	65.61368461963777	297.86241071698765	5629.45066291726	-13.065272551936234	181.14330025455345	5883.253812992627	1033.713514596459	2.9463092071478885	5835.459307671162	1103.1239746317651	-44.52557115606065	5781.0120632934195	1170.4728119254623	-95.47425783484303	5722.604060173873	1226.8096864846746	-146.97662861881184	5659.688833032298	1287.0399523584606	-201.3556687340793	5601.462393823445	1341.9087955912591	-249.9844320354133	5482.694868833744	1436.3884175238918	-297.5487603944573	5697.504372676054	1267.5614974664584	-201.02189490014416	5732.999426421233	1256.7509467209566	-279.7521835282353	5797.293373932102	1043.4005867404746	-289.3196319531816	5874.7289107647375	1008.955267471576	-427.1955905123615	5896.121057339783	1040.8221434866596	-429.4329489023182	5903.7797866257315	1056.9157051832651	-447.61704524467973	5908.126865816686	1064.1305663674389	-462.29047167276815	5910.90694398144	1066.7296351197751	-476.2425888804607	5895.991943685787	1030.1982140623072	-435.97171190558197	5918.573231956459	1044.5406953266388	-460.61612610601816	5926.5723031742655	1050.4349444631039	-482.42345762545307	5926.361719370131	1053.9956789562707	-494.9877814066713	5922.690919383402	1056.8729359025633	-504.71726484038254	5892.1562477397765	1018.6452727760978	-440.8022368003987	5912.108830825888	1026.3866727991388	-467.4511623822209	5920.248411826531	1031.2424589625314	-491.8105546186986	5919.711695362663	1034.7820729614866	-507.23923400139944	5915.5577599290355	1037.5626535635763	-518.0164457866537	5888.946475970243	1010.135371134058	-443.55686970090295	5904.265143323692	1009.7393958919647	-469.7452820951261	5910.72533185914	1012.3484704033457	-491.511051322306	5909.870762156138	1014.9006712057318	-506.6768354892572	5905.805380176131	1017.1066169362899	-516.9445190123605	5883.991097399945	999.7679661806751	-446.2481498915478	5895.249917589759	993.0791807225434	-471.83699272847105	5899.366048379716	992.6375736156455	-489.98537275025	5898.231439099263	993.2749004979569	-501.39524126667607	5894.3359217563075	994.5244342634173	-510.69094883398424	5663.205042257848	1267.0039643927266	-164.37316437403385	5619.836414528865	1220.8796210457829	-94.94750109229503	5750.377946915971	1067.8721707397428	-220.30824671723173	5837.220544693798	998.6557581968611	-360.8798375472465	5843.496567992246	1023.877997434878	-380.9744556027484	5841.758278767724	1020.8071468763667	-399.0102089251181	5837.6022559978	1015.5213285588591	-410.5376376441647	5831.617783011169	1008.4223578473513	-419.26413548029916	5833.391899982966	1017.1407461874148	-379.3235466037328	5817.142809968516	1024.0554980727147	-402.78298950905855	5806.485356380329	1016.9516362106813	-418.0012099869723	5803.876803307342	1008.0217144552355	-425.87543758532166	5804.427421118944	997.5859520530688	-431.3224992621897	5825.977154121249	1007.7736119801045	-375.64569539101274	5806.117454586543	1009.454765289362	-396.5382931995889	5793.563211049337	1000.4297543426738	-412.5816359697627	5789.972296986191	989.0451055939594	-421.8115466793955	5790.359029561843	977.3294464440851	-427.64032851842103	5821.124193807963	1001.0810735010348	-372.457805443198	5799.028104634977	997.0759413637903	-388.44122567878617	5787.172118038403	987.9045055393681	-401.81643812580245	5783.223198567713	976.2299615519729	-410.3964098735498	5783.356907254952	964.8858182609214	-415.72386566788475	5816.230819422884	992.3653257881078	-368.0317814315041	5792.844805712854	983.6624228934154	-380.00136470060386	5782.022130159239	974.2987261110153	-389.6930654664111	5778.498968684105	964.8063406000236	-395.45856632833977	5778.247470350745	954.195042187298	-399.89423181620157
181	0.75	5921.0129	906.651	56.2195	5983.0817771415495	885.3157958364935	0.8329130996168566	5901.9646303514855	483.2818846834147	-80.84980078052153	5923.3358663492	106.94627514959333	-167.1297053037027	5849.759397969903	31.43250898569893	-7.670852598251774	5866.951815213441	899.5722699656402	123.84698850913138	5807.250867759985	497.2370532628726	223.245084304742	5758.270122268469	65.76414200361114	297.440196481771	5629.434916677644	-13.016180899532118	180.71961878045317	5883.189549443018	1033.6929592320346	2.9367926154582413	5835.322135167485	1103.089917729549	-44.48625767322766	5780.786577116003	1170.419828448751	-95.37118067413344	5722.268675660207	1226.724815046198	-146.79094488112224	5659.239533062867	1286.9168946618208	-201.0870940174198	5600.914596057428	1341.7526270318174	-249.6398065038973	5482.098880929398	1436.1909173773886	-297.15463914050383	5697.025933143798	1267.304686522935	-200.92967081444124	5732.260272096026	1256.004540059359	-280.20568092356734	5794.436794336425	1042.6834743252437	-290.7738574619101	5869.024512152235	1009.7190276881533	-430.3464032931852	5890.013924699396	1041.8982875794018	-433.26398249543615	5896.891972292895	1058.1207080836537	-451.6180129936752	5900.6823236197615	1065.419129086123	-466.36038194195373	5902.987108468786	1068.0825732851838	-480.3277134563615	5889.827735148489	1031.3031766970835	-439.73506608139485	5911.542225421369	1046.047605457612	-464.92884518299127	5918.795499061407	1052.1024404895152	-486.8674506064836	5918.120884413503	1055.6714629767068	-499.3732080103845	5914.0657573722265	1058.4938277462077	-508.9596608035323	5885.979907294609	1019.713781091679	-444.4001790496729	5905.0805201080875	1027.827544370596	-471.49553884798706	5912.407320425703	1032.852299091688	-495.97425574383135	5911.311263336867	1036.398906737264	-511.32079749142804	5906.737045453596	1039.11796416491	-521.9359271316349	5882.784873652043	1011.1691165887041	-447.0262648729571	5897.356280953341	1011.0803315252185	-473.51001586014513	5903.110431812588	1013.8296779201647	-495.354609523618	5901.717600350838	1016.3849061124123	-510.4277934542127	5897.257647206403	1018.531242303837	-520.536742055121	5877.862219128761	1000.7401597146122	-449.5350748641379	5888.459544321444	994.2995023050069	-475.2903219384348	5892.01727714095	993.9579474065482	-493.4612338428501	5890.493429545731	994.5915459263514	-504.7839256211207	5886.250326992381	995.7848588002387	-513.9277204773082	5662.868683053718	1267.0486057053633	-163.97998016380373	5619.776769399015	1221.4088265172275	-93.75409067976628	5748.401892901602	1067.4251136164057	-220.07218061570683	5832.258262057827	997.5898113964812	-361.48761965660844	5837.781747278103	1022.9880740666307	-381.6521650804506	5835.658346798659	1020.0089077597038	-399.75786725022056	5831.302406622305	1014.7657799023386	-411.269203279506	5825.209677842491	1007.684297916104	-419.9268461787084	5827.825886704713	1016.1953875112733	-379.75336072974375	5811.023830287516	1023.1974947872643	-402.79574396845567	5800.125214080446	1016.1316573327961	-417.84125701212935	5797.432871558578	1007.2233359002043	-425.75777402093115	5797.958751355981	996.80407629756	-431.3407900222423	5820.622909487502	1006.7665831515257	-375.9193521974062	5800.338367966539	1008.4995893535386	-396.32066349406404	5787.550883499536	999.5076215813882	-412.15644296241095	5783.873236357175	988.1449783243461	-421.4282068469935	5784.23988000373	976.445405223027	-427.4012908154742	5815.932552291352	1000.0283557821956	-372.630079811971	5793.5935874572915	996.0303554573468	-388.08022831665755	5781.565565807162	986.8790014916317	-401.2557935823721	5777.549585698509	975.2210533889578	-409.8661873925716	5777.672272267522	963.8898409419389	-415.32460934064545	5811.251447959835	991.2565499356925	-368.11268145506574	5787.769589498475	982.526026760778	-379.5309801257077	5776.858988973261	973.1647767476638	-389.03592150974663	5773.311019852324	963.677901067971	-394.81060509575207	5773.063631325595	953.0742615953749	-399.35479942607833
